PathFileType	3	(X/Y/Z)	F:\ViconData\AntennenMessung\Messung1\Session1\ID13.trc
DataRate	CameraRate	NumFrames	NumMarkers	Units	OrigDataRate	OrigDataStartFrame	OrigNumFrames
120.0	120.0	6	70	mm	120.0	1	912	
Frame#	Time	Ashort			Along			Atop			A4			Bshort			Blong			Btop			B4			Cshort			Clong			Ctop			C4			Dshort			Dlong			Dtop			D4			Eshort			Elong			Etop			E4			Fshort			Flong			Ftop			F4			Gshort			Glong			Gtop			G4			Hshort			Hlong			Htop			H4			I1			I2			I3			I4			I5			WandAshort			WandAlong			WandAtop			WandA4			WandA15			WandBshort			WandB4			WandB5			WandBtop			WandBlong			WandCshort			WandClong			WandCtop			WandC4			WandC5			Acenter			Aantenna			Bcenter			Bantenna			Ccenter			Cantenna			Dcenter			Dantenna			Ecenter			Eantenna			Fcenter			Fantenna			Gcenter			Gantenna			Hcenter			Hantenna			Icenter			Iantenna			
		X1	Y1	Z1	X2	Y2	Z2	X3	Y3	Z3	X4	Y4	Z4	X5	Y5	Z5	X6	Y6	Z6	X7	Y7	Z7	X8	Y8	Z8	X9	Y9	Z9	X10	Y10	Z10	X11	Y11	Z11	X12	Y12	Z12	X13	Y13	Z13	X14	Y14	Z14	X15	Y15	Z15	X16	Y16	Z16	X17	Y17	Z17	X18	Y18	Z18	X19	Y19	Z19	X20	Y20	Z20	X21	Y21	Z21	X22	Y22	Z22	X23	Y23	Z23	X24	Y24	Z24	X25	Y25	Z25	X26	Y26	Z26	X27	Y27	Z27	X28	Y28	Z28	X29	Y29	Z29	X30	Y30	Z30	X31	Y31	Z31	X32	Y32	Z32	X33	Y33	Z33	X34	Y34	Z34	X35	Y35	Z35	X36	Y36	Z36	X37	Y37	Z37	X38	Y38	Z38	X39	Y39	Z39	X40	Y40	Z40	X41	Y41	Z41	X42	Y42	Z42	X43	Y43	Z43	X44	Y44	Z44	X45	Y45	Z45	X46	Y46	Z46	X47	Y47	Z47	X48	Y48	Z48	X49	Y49	Z49	X50	Y50	Z50	X51	Y51	Z51	X52	Y52	Z52	X53	Y53	Z53	X54	Y54	Z54	X55	Y55	Z55	X56	Y56	Z56	X57	Y57	Z57	X58	Y58	Z58	X59	Y59	Z59	X60	Y60	Z60	X61	Y61	Z61	X62	Y62	Z62	X63	Y63	Z63	X64	Y64	Z64	X65	Y65	Z65	X66	Y66	Z66	X67	Y67	Z67	X68	Y68	Z68	X69	Y69	Z69	X70	Y70	Z70	
1	0	-1038.2261	214.60741	-1644.0906	-1109.36	204.19659	-1599.3936	-1063.4346	172.85669	-1626.1228	-1054.1288	262.20593	-1634.9072	-1352.7161	235.41724	1003.4905	-1281.425	227.46259	1052.2509	-1322.704	194.08443	1020.8098	-1284.5178	287.77274	1052.6047	813.94635	187.70789	1209.4578	892.53558	178.61598	1178.9994	844.51721	145.48137	1198.3601	860.86578	292.37265	1167.8906	1115.9089	210.04155	-1401.8301	1056.3116	194.11818	-1460.3157	1095.1829	162.38394	-1423.8767	1069.7838	238.81244	-1426.0197	-1204.5177	1685.9482	-1563.2922	-1129.0927	1688.2847	-1606.0293	-1173.153	1724.4998	-1581.9424	-1134.0013	1581.0715	-1603.8596	-1239.755	1699.3245	1119.5037	-1309.2983	1698.6045	1071.8217	-1270.5249	1736.3949	1096.9009	-1245.6571	1592.8656	1110.677	988.82233	1664.1293	1162.2314	957.19244	1700.3989	1183.8934	921.75098	1662.3875	1214.9043	939.77344	1659.3801	1159.9299	999.18738	1668.4222	-1579.4221	1059.0782	1670.2194	-1518.776	1025.0815	1707.9885	-1551.2089	1059.3169	1672.141	-1585.4819	-187.61513	1177.335	-236.68552	-194.18642	1179.197	-152.32677	-191.45308	1215.0812	-199.66451	-222.40933	1175.6798	-202.071	-142.49355	1180.3743	-195.95242																																														-1068.3119	210.20416	-1625.186	-1073.3607	248.86383	-1624.2163	-1321.3229	231.91438	1024.962	-1319.9086	270.65604	1029.2146	848.11395	183.75505	1196.2155	851.75714	222.52371	1194.0435	1088.8278	202.80592	-1428.406	1082.8073	241.09879	-1432.6968	-1171.8959	1686.9586	-1581.7762	-1170.5907	1647.9808	-1581.6038	-1270.9636	1699.0013	1098.1056	-1271.421	1660.0242	1099.3615	952.48956	1705.7915	1187.1143	972.4668	1734	1169.0533	1026.6516	1669.2462	-1551.6113	1028.231	1630.2804	-1552.0162	-190.56778	1178.1715	-198.78076	-189.63287	1139.1938	-197.84753
2	0.0083333333	-1038.2212	214.61635	-1644.0847	-1109.3663	204.24471	-1599.4332	-1063.4285	172.84796	-1626.1155	-1054.1366	262.23404	-1634.8993	-1352.701	235.40596	1003.6204	-1281.4279	227.46872	1052.1719	-1322.718	194.05591	1020.7557	-1284.569	287.84375	1052.6221	813.88177	187.63148	1209.4404	892.46973	178.46361	1179.1785	844.52954	145.53999	1198.2703	860.93518	292.58258	1168.0881	1115.917	210.05774	-1401.8433	1056.2988	194.08984	-1460.2932	1095.1085	162.26897	-1423.8792	1069.7859	238.80652	-1426.0502	-1204.5195	1685.9489	-1563.2961	-1129.1637	1688.4678	-1606.7842	-1173.1492	1724.4868	-1581.9525	-1134.0062	1581.0594	-1603.8398	-1239.7292	1699.2877	1119.4916	-1309.249	1698.5361	1071.8029	-1270.5161	1736.3844	1096.8997	-1245.6299	1592.8044	1110.6671	988.88904	1664.1599	1162.194	955.86664	1702.2004	1181.1003	921.6922	1662.3733	1214.936	939.78717	1659.4049	1159.9067	999.1817	1668.428	-1579.4248	1059.0764	1670.231	-1518.7738	1025.0806	1707.9846	-1551.2072	1059.313	1672.1405	-1585.491	-187.63765	1177.3463	-236.68893	-194.18613	1179.1987	-152.31744	-191.49657	1215.0243	-199.68097	-222.42108	1175.6897	-202.06638	-142.49306	1180.3958	-195.95877																																														-1068.3058	210.23056	-1625.2032	-1073.3497	248.89151	-1624.2599	-1321.3684	231.91666	1024.9641	-1319.9878	270.65363	1029.2699	848.18744	183.62946	1196.2303	851.91034	222.3958	1194.1541	1088.7579	202.7836	-1428.4698	1082.7562	241.07397	-1432.8087	-1171.9708	1687.0367	-1582.08	-1170.7444	1648.0563	-1582.2128	-1270.928	1698.9504	1098.0901	-1271.3569	1659.9725	1099.3296	952.97864	1705.5272	1182.7538	972.57538	1732.5573	1162.5959	1026.652	1669.2548	-1551.6077	1028.2329	1630.2889	-1552.0104	-190.57832	1178.1782	-198.80072	-189.60701	1139.2014	-197.86957
3	0.016666667	-1038.2455	214.59663	-1644.0845	-1109.3945	204.22385	-1599.4132	-1063.5393	173.24069	-1625.8341	-1054.1166	262.21704	-1634.9023	-1352.7834	235.35834	1003.5519	-1281.4313	227.43303	1052.2814	-1322.7083	194.097	1020.7323	-1284.5725	287.7829	1052.6508	814.02667	187.63863	1209.4199	893.08789	179.30861	1178.2866	844.50525	145.42404	1198.3071	860.92767	292.2955	1167.3512	1115.9303	210.04651	-1401.8517	1056.3229	194.10272	-1460.3187	1095.1719	162.35764	-1423.9238	1069.7676	238.78648	-1426.0547	-1204.5059	1685.9475	-1563.3108	-1129.0981	1688.2935	-1606.0427	-1173.1653	1724.4878	-1581.9561	-1133.9972	1581.0603	-1603.8434	-1239.7151	1699.2783	1119.4756	-1308.3842	1699.4296	1068.2649	-1270.5077	1736.3663	1096.8864	-1245.6705	1592.8809	1110.6942	988.82446	1664.1073	1162.2238	957.18677	1700.4038	1183.9148	921.71484	1662.3516	1214.8634	939.79193	1659.3813	1159.928	999.17871	1668.4263	-1579.4183	1059.0792	1670.235	-1518.781	1025.0864	1707.9863	-1551.2147	1059.3104	1672.142	-1585.479	-187.62624	1177.3319	-236.69127	-194.19574	1179.2048	-152.32304	-191.49039	1215.0236	-199.6803	-222.40297	1175.6624	-202.07005	-142.49219	1180.3835	-195.94189																																														-1068.47	210.19019	-1625.1077	-1073.6278	248.84015	-1624.3479	-1321.4113	231.87373	1024.9773	-1320.0815	270.60727	1029.33	847.72876	184.08769	1196.1484	850.96417	222.89282	1193.9819	1088.8046	202.79091	-1428.4584	1082.7747	241.08188	-1432.7526	-1171.902	1686.9618	-1581.7866	-1170.5898	1647.9843	-1581.6108	-1270.3805	1699.3458	1096.6064	-1270.2463	1660.347	1096.3116	952.5083	1705.7711	1187.1222	972.51544	1733.9817	1169.0981	1026.6525	1669.2557	-1551.6064	1028.2281	1630.2897	-1552.0006	-190.57741	1178.1732	-198.79118	-189.61176	1139.1965	-197.8508
4	0.025	-1038.222	214.6151	-1644.0831	-1109.3832	204.27696	-1599.4435	-1063.4252	172.85797	-1626.1259	-1054.1157	262.24133	-1634.9105	-1352.73	235.40973	1003.5281	-1281.3964	227.50786	1052.1774	-1322.7396	194.04689	1020.8162	-1284.6322	287.79852	1052.7152	813.91895	187.60786	1209.5245	892.51898	178.66582	1178.9821	844.42078	145.51022	1198.2971	860.90845	292.27441	1167.3706	1115.9047	210.05583	-1401.8342	1056.3333	194.11806	-1460.3201	1095.16	162.39647	-1423.8672	1069.7556	238.78503	-1426.0547	-1204.6213	1686.0485	-1563.0576	-1129.1174	1688.2952	-1606.0544	-1173.1526	1724.4905	-1581.9524	-1134.0001	1581.0664	-1603.8713	-1239.4064	1698.8324	1119.3529	-1308.3469	1699.6179	1068.1821	-1270.5087	1736.3839	1096.887	-1245.6566	1592.8536	1110.6959	988.83417	1664.0939	1162.2347	956.02106	1702.2968	1181.0638	922.50189	1662.0834	1215.0094	939.80316	1659.3826	1159.9495	999.17572	1668.4283	-1579.4258	1058.8737	1669.9437	-1518.8174	1025.08	1707.9919	-1551.2174	1059.3187	1672.1467	-1585.4777	-187.62334	1177.3403	-236.68729	-194.18535	1179.204	-152.32616	-191.48006	1215.0265	-199.68214	-222.46904	1175.7581	-202.08142	-142.50185	1180.3828	-195.95801																																														-1068.2898	210.24692	-1625.2214	-1073.3201	248.90985	-1624.2864	-1321.3484	231.93347	1024.9302	-1319.9258	270.67975	1029.1375	847.98767	183.73198	1196.286	851.60645	222.51009	1194.2456	1088.8214	202.80995	-1428.424	1082.8157	241.1021	-1432.7416	-1171.8916	1687.0223	-1581.6959	-1170.58	1648.0453	-1581.4292	-1270.4852	1699.1864	1096.2847	-1270.4608	1660.1915	1095.6532	953.7193	1704.9763	1182.3846	973.26807	1731.8364	1161.9546	1026.5203	1669.1223	-1551.6642	1027.9642	1630.1516	-1552.1121	-190.57057	1178.1774	-198.79736	-189.6086	1139.2004	-197.86148
5	0.033333333	-1038.2325	214.59554	-1644.0901	-1109.3909	204.21144	-1599.396	-1063.4587	172.85522	-1626.1113	-1054.1162	262.23663	-1634.9015	-1352.6545	235.354	1003.694	-1281.4729	227.49423	1052.2095	-1322.7338	194.06126	1020.744	-1284.6052	287.8223	1052.6938	813.98676	187.55379	1209.5471	892.54517	178.66779	1179.021	844.47467	145.51768	1198.3091	860.72247	292.60608	1167.3748	1115.9181	210.04846	-1401.8302	1056.3323	194.11751	-1460.2766	1095.1609	162.38187	-1423.8967	1069.7736	238.81659	-1426.0039	-1204.5204	1685.9558	-1563.2809	-1129.1597	1688.4498	-1606.7656	-1173.1576	1724.495	-1581.9602	-1134.0076	1581.0657	-1603.8574	-1239.3719	1698.778	1119.3363	-1308.3568	1699.4988	1068.1951	-1270.5192	1736.3907	1096.8884	-1245.6641	1592.8793	1110.6899	988.8537	1664.1504	1162.2638	955.91571	1702.3124	1181.1548	921.96515	1662.2949	1214.934	939.80377	1659.376	1159.9121	999.1579	1668.4391	-1579.4283	1059.0667	1670.222	-1518.7665	1025.0729	1707.9897	-1551.2083	1059.3145	1672.1316	-1585.475	-187.64105	1177.3271	-236.68242	-194.18571	1179.197	-152.33035	-191.49557	1215.0326	-199.67181	-222.43365	1175.6831	-202.06119	-142.50891	1180.405	-195.95357																																														-1068.3282	210.20367	-1625.187	-1073.3691	248.8647	-1624.2301	-1321.4363	231.90691	1024.9714	-1320.1083	270.64334	1029.2987	848.02179	183.70396	1196.3219	851.62427	222.48476	1194.3037	1088.8005	202.79831	-1428.4288	1082.7748	241.08997	-1432.7229	-1171.9752	1687.0328	-1582.0599	-1170.7451	1648.0524	-1582.1641	-1270.4629	1699.1028	1096.2871	-1270.4042	1660.1079	1095.6584	953.31024	1705.3308	1182.6489	972.94342	1732.2867	1162.4271	1026.6316	1669.2566	-1551.6091	1028.1998	1630.2903	-1552.0126	-190.58151	1178.1672	-198.78368	-189.6151	1139.1906	-197.84468
6	0.041666667	-1038.2539	214.59508	-1644.094	-1109.3792	204.16608	-1599.405	-1063.4631	172.89095	-1626.0966	-1054.136	262.25122	-1634.9128	-1352.7347	235.29172	1003.7329	-1281.4039	227.44658	1052.1836	-1322.7397	194.05293	1020.7798	-1284.6379	287.81595	1052.7362	813.9375	187.68022	1209.4171	892.4964	178.5611	1179.0685	844.48102	145.50172	1198.2644	860.95209	292.26019	1167.3339	1115.8895	210.0015	-1401.8375	1056.3251	194.12491	-1460.293	1095.1609	162.36185	-1423.9351	1069.7931	238.77657	-1425.9971	-1204.6165	1686.0469	-1563.075	-1129.0914	1688.2886	-1606.045	-1173.1483	1724.4836	-1581.9528	-1134.0071	1581.0623	-1603.8728	-1239.6746	1699.2166	1119.4728	-1308.3754	1699.4442	1068.3789	-1270.5272	1736.4025	1096.8962	-1245.6584	1592.8553	1110.6788	988.92401	1664.2183	1162.2471	957.25891	1700.4736	1183.8085	922.61926	1662.0801	1214.9894	939.80084	1659.3688	1159.8947	999.15234	1668.4275	-1579.4351	1059.0347	1670.1976	-1518.764	1025.0648	1707.9957	-1551.2101	1059.3073	1672.132	-1585.4723	-187.63864	1177.3269	-236.66721	-194.18925	1179.1931	-152.34125	-191.50024	1215.0201	-199.66882	-222.41763	1175.681	-202.07179	-142.50218	1180.3965	-195.98645																																														-1068.3555	210.1813	-1625.1807	-1073.4272	248.83849	-1624.2313	-1321.4413	231.84999	1024.9885	-1320.1107	270.58789	1029.302	848.12299	183.71194	1196.2104	851.81824	222.48051	1194.1267	1088.7958	202.77979	-1428.4268	1082.765	241.07492	-1432.6826	-1171.8894	1687.0182	-1581.6948	-1170.58	1648.041	-1581.4265	-1270.4294	1699.3184	1096.5997	-1270.3268	1660.3198	1096.2878	952.9657	1705.3893	1186.7317	972.70428	1733.5594	1168.3517	1026.6157	1669.2391	-1551.6099	1028.175	1630.2725	-1552.0121	-190.58163	1178.1653	-198.78181	-189.61015	1139.1887	-197.84377
